<?xml version="1.0" encoding="utf-8"?>
<!-- Generator: Adobe Illustrator 24.1.1, SVG Export Plug-In . SVG Version: 6.00 Build 0)  -->
<svg version="1.1" id="Layer_1" xmlns="http://www.w3.org/2000/svg" xmlns:xlink="http://www.w3.org/1999/xlink" x="0px" y="0px"
	 viewBox="0 0 512 512" style="enable-background:new 0 0 512 512;" xml:space="preserve">
<style type="text/css">
	.st0{fill:white;}
</style>
<g id="XMLID_2_">
	<path id="XMLID_6_" class="st0" d="M416.6,0c-53,0-84.6,47.8-84.6,95.7V246c0,10.3,8.5,29,21.4,46.1v198.2c0,12,5.1,21.4,15.4,21.4
		h29c10.3,0,18.8-9.4,18.8-21.4C416.6,490.4,416.6,0,416.6,0z M157.8,4.3l-10.3,106.8h-9.4L127.9,5.1H115
		C101.4,53,95.4,109.4,95.4,158c0,21.4,19.6,40.2,41.9,47.8L127,491.2c0,25.6,74.3,29,74.3,1.7l-10.3-285.3
		c22.2-7.7,41.9-26.5,41.9-47.8c4.3-48.7-10.3-105.9-20.5-152.9h-12.8l-9.4,106.8h-9.4L172.3,5.1L157.8,4.3z"/>
</g>
</svg>
