<?xml version="1.0" encoding="utf-8"?>
<!-- Generator: Adobe Illustrator 21.0.0, SVG Export Plug-In . SVG Version: 6.00 Build 0)  -->
<svg version="1.1" id="Layer_1" xmlns="http://www.w3.org/2000/svg" xmlns:xlink="http://www.w3.org/1999/xlink" x="0px" y="0px"
	 viewBox="0 0 512 512" style="enable-background:new 0 0 512 512;" xml:space="preserve">
<g>
	<path d="M355.2,0l-12.9,14.2c-29,31.9-52.8,46.1-72.7,55.5s-36.6,12.1-53,24.6c-17.5,13.4-42.9,39.1-53.6,85
		c-23,5-39.7,13.8-53,25.3c-13.1,11.3-23,24.2-35.1,38.2v0.6c-17.4,20-32.7,41.6-62.2,53l-12.3,4.9V512h375.8
		c21.6-1.2,36.5-16.1,45.6-30.8c9.1-14.7,14.1-30.7,16.6-43.7c6.5-33.3,18.5-129.4,18.5-129.4l0.6-1.8v-1.8
		c-0.6-13.3-6.1-24.6-12.9-35.1l22.2-65.9l35.1-53l9.9-14.2l-12.9-11.7L369.4,12.3L355.2,0z M356.4,54.2l102.9,89.3l-27.1,40
		l-1.8,1.8l-0.6,3.1l-17.9,53c-9.3-3.9-18.9-6.5-29.6-6.2h-1.2L256.6,236h-19.7v76.4c-2.8,21.5-14.7,29.8-29.6,35.7
		c-4.9,2-5.5,0.9-9.9,1.8V235.4c-3.2-73.1,22.8-94.1,43.1-109.7c5.6-4.3,22.1-9.3,45.6-20.3C305.8,96.1,330.2,79.6,356.4,54.2z
		 M159.3,223.7c-0.1,4.5-1.5,7.6-1.2,12.3v0.6v157.1h19.7c0,0,21.1-0.2,43.7-9.2s50-30.1,54.8-67.2v-41.9l106-0.6h0.6
		c18.2-1,33.3,12.8,34.5,30.8l-1.2,9.2h-80.7v39.4h75.8c-2.1,15.2-4,24.8-6.2,39.4h-69.6v39.4h63.5c-2.1,8.8-6.2,19.3-11.1,27.1
		c-5.4,8.8-10,12.1-14.2,12.3H39.7V325.3c32-16.9,51.8-41.4,64.7-56.1c13.3-15.2,22.5-26.8,31.4-34.5
		C141.7,229.7,150.9,226.9,159.3,223.7z" fill = "white"/>
</g>
</svg>
