<?xml version="1.0" encoding="utf-8"?>
<!-- Generator: Adobe Illustrator 24.1.1, SVG Export Plug-In . SVG Version: 6.00 Build 0)  -->
<svg version="1.1" id="Layer_1" xmlns="http://www.w3.org/2000/svg" xmlns:xlink="http://www.w3.org/1999/xlink" x="0px" y="0px"
	 viewBox="0 0 512 512" style="enable-background:new 0 0 512 512;" xml:space="preserve">
<g id="XMLID_1_">
	<path id="XMLID_3_" d="M8.2,166.8H0c0,42.5,16.4,82.6,40.1,119.4c36,55.6,88.3,103.1,132.5,137.4c44.2,34.4,79.3,54.8,79.3,54.8
		l4.1,2.5l4.1-2.5c0,0,63-36.8,125.1-93.2c31.1-28.6,63-62.2,86.7-99S512,208.6,512,166.8c0-35.2-12.3-68.7-35.2-94.1
		c-22.1-25.4-54.8-41.7-93.2-41.7c-35.2,0-68.7,12.3-94.1,32.7c-25.4,21.3-41.7,51.5-41.7,87.5h16.4c0-36-17.2-66.2-41.7-87.5
		c-25.4-21.3-58.9-32.7-94.1-32.7c-38.4,0-71.2,16.4-93.2,41.7S0,131.7,0,166.8H8.2h8.2c0-31.1,11.5-61.3,31.1-83.4
		s47.4-36.8,81-36.8c31.1,0,61.3,10.6,84.2,29.4c22.1,18.8,36,44.2,36,74.4H265c0-30.3,13.9-56.4,36-74.4
		c22.1-18.8,52.3-29.4,84.2-29.4c33.5,0,61.3,13.9,81,36.8c19.6,22.1,31.1,52.3,31.1,83.4c0,37.6-14.7,75.2-37.6,110.4
		c-34.4,54-85.9,100.6-129.2,134.1c-21.3,16.4-40.9,30.3-54.8,39.3c-7.4,4.9-13.1,8.2-16.4,10.6c-1.6,0.8-3.3,2.5-4.1,2.5
		c-0.8,0.8-1.6,0.8-1.6,0.8l4.1,6.5l4.1-6.5h-0.8c-7.4-4.1-68.7-40.9-127.6-95.7c-29.4-27.8-58.9-59.7-80.2-93.2
		C31.9,241.3,18,205.3,18,168.5H8.2V166.8z"/>
</g>
</svg>
