<?xml version="1.0" encoding="utf-8"?>
<!-- Generator: Adobe Illustrator 24.1.1, SVG Export Plug-In . SVG Version: 6.00 Build 0)  -->
<svg version="1.1" id="Layer_1" xmlns="http://www.w3.org/2000/svg" xmlns:xlink="http://www.w3.org/1999/xlink" x="0px" y="0px"
	 viewBox="0 0 512 512" style="enable-background:new 0 0 512 512;" xml:space="preserve">
<g id="XMLID_1_">
	<path id="XMLID_9_" d="M512,51.3v68.5H136.9V51.3H512z M136.9,290.2H512v-68.5H136.9V290.2z M136.9,460.7H512v-68.5H136.9V460.7z
		 M34.2,51.3C15.6,51.3,0,66.2,0,85.6s15.6,34.2,34.2,34.2s34.2-14.9,34.2-34.2S52.8,51.3,34.2,51.3z M34.2,221.8
		C15.6,221.8,0,236.7,0,256s15.6,34.2,34.2,34.2s34.2-14.9,34.2-34.2S52.8,221.8,34.2,221.8z M34.2,392.2
		C15.6,392.2,0,407.1,0,426.4c0,18.6,15.6,34.2,34.2,34.2s34.2-14.9,34.2-34.2C68.5,407.8,52.8,392.2,34.2,392.2z"/>
</g>
</svg>
