<?xml version="1.0" encoding="utf-8"?>
<!-- Generator: Adobe Illustrator 21.0.0, SVG Export Plug-In . SVG Version: 6.00 Build 0)  -->
<svg version="1.1" id="Layer_1" xmlns="http://www.w3.org/2000/svg" xmlns:xlink="http://www.w3.org/1999/xlink" x="0px" y="0px"
	 viewBox="0 0 512 512" style="enable-background:new 0 0 512 512;" xml:space="preserve">
<g>
	<path d="M51.2,51.2v62.4L0,181.9v5.9c0,28.1,23.1,51.2,51.2,51.2v221.9h409.6V238.9c28.1,0,51.2-23.1,51.2-51.2v-5.9l-51.2-68.3
		V51.2H51.2z M85.3,85.3h341.3v17.1H85.3V85.3z M76.8,136.5h358.4l41.1,54.9c-1.9,7.4-7.5,13.3-15.5,13.3c-9.5,0-17.1-7.6-17.1-17.1
		h-34.1c0,9.5-7.6,17.1-17.1,17.1s-17.1-7.6-17.1-17.1h-34.1c0,9.5-7.6,17.1-17.1,17.1s-17.1-7.6-17.1-17.1h-34.1
		c0,9.5-7.6,17.1-17.1,17.1s-17.1-7.6-17.1-17.1h-34.1c0,9.5-7.6,17.1-17.1,17.1c-9.5,0-17.1-7.6-17.1-17.1h-34.1
		c0,9.5-7.6,17.1-17.1,17.1s-17.1-7.6-17.1-17.1H68.3c0,9.5-7.6,17.1-17.1,17.1c-8,0-13.6-5.9-15.5-13.3L76.8,136.5z M85.3,225.6
		c9.1,8.2,21.1,13.3,34.1,13.3s25.1-5.1,34.1-13.3c9.1,8.2,21.1,13.3,34.1,13.3s25.1-5.1,34.1-13.3c9.1,8.2,21.1,13.3,34.1,13.3
		c13.1,0,25.1-5.1,34.1-13.3c9.1,8.2,21.1,13.3,34.1,13.3c13.1,0,25.1-5.1,34.1-13.3c9.1,8.2,21.1,13.3,34.1,13.3
		c13.1,0,25.1-5.1,34.1-13.3v115.7H85.3V225.6z M85.3,375.5h341.3v51.2H85.3V375.5z"/>
</g>
</svg>
